# xmcd
#
# Track frame offsets: 
#        150
#        18960
#        37735
#        61302
#        74180
#        91565
#        106470
#        122970
#        138247
#        157640
#        169312
#        185570
#        201297
#        212555
#        228610
#        240405
#        255620
#        271485
#        284137
#        297895
#        313582
#
# Disc length: 4408 seconds
#
# Revision: 4
# Processed by: cddbd v1.5.2PL0 Copyright (c) Steve Scherf et al.
# Submitted via: ExactAudioCopyFreeDBPlugin 1.0
#
DISCID=35113615
DTITLE=Kenny Rogers and Dolly Parton - The Very Best Of Kenny Rogers and D
DTITLE=olly Parton
DYEAR=1993
DGENRE=Country
TTITLE0=Islands In The Stream
TTITLE1=Kenny Rogers - She Believes In Me
TTITLE2=Dolly Parton - You Are
TTITLE3=Dolly Parton - Here You Came Again
TTITLE4=Kenny Rogers - Lady
TTITLE5=Dolly Parton - Sandy's Song
TTITLE6=Kenny Rogers - Crazy
TTITLE7=Dolly Parton - Think About Love
TTITLE8=Kenny Rogers - Coward Of The County
TTITLE9=Dolly Parton - 9 To 5
TTITLE10=Kenny Rogers - You Decorated My Life
TTITLE11=Dolly Parton - Heartbreaker
TTITLE12=Dolly Parton - Baby I'm Burnin'
TTITLE13=Kenny Rogers - Lucille
TTITLE14=Dolly Parton - Jolene
TTITLE15=Dolly Parton - Applejack
TTITLE16=Kenny Rogers - Green Green Grass Of Home
TTITLE17=Kenny Rogers - Ruby Don't Take Your Love To Town
TTITLE18=Dolly Parton - I Will Always Love You
TTITLE19=Kenny Rogers - The Gambler
TTITLE20=Real Love
EXTD=
EXTT0=
EXTT1=Kenny Rogers Only\n
EXTT2=
EXTT3=
EXTT4=
EXTT5=
EXTT6=
EXTT7=
EXTT8=
EXTT9=
EXTT10=
EXTT11=
EXTT12=
EXTT13=
EXTT14=
EXTT15=
EXTT16=
EXTT17=
EXTT18=
EXTT19=
EXTT20=
PLAYORDER=
